ffmpeg started on 2026-04-01 at 10:52:55
Report written to "D:\Convert\FFMetrics\reports\psnr_report-6.txt"
Log level: 32
Command line:
ffmpeg -hide_banner -nostdin -r 24000/1001 -i "F:\\Convert\\files\\[DC] Make Heroine ga Oosugiru - 07_Telegram_HEVC(259).mkv" -r 24000/1001 -i "F:\\Convert\\files\\[DC] Make Heroine ga Oosugiru - 07_Telegram.mp4" -lavfi "[0:v]settb=AVTB,setpts=PTS-STARTPTS,format=pix_fmts=yuv420p10le,fps=24000/1001,scale=1920:1080:flags=lanczos:param0=3:out_range=limited:out_color_matrix=bt709:out_chroma_loc=left,setsar=1/1,setdar=(1920/1080)*(1/1),colorspace=format=yuv420p10:range=tv:primaries=bt709:trc=bt709:space=bt709:fast=0[main];[1:v]settb=AVTB,setpts=PTS-STARTPTS,format=pix_fmts=yuv420p,fps=24000/1001,scale=1920:1080:flags=lanczos:param0=3:out_range=limited:out_color_matrix=bt709:out_chroma_loc=left,setsar=1/1,setdar=(1920/1080)*(1/1),colorspace=format=yuv420p:range=tv:primaries=bt709:trc=bt709:space=bt709:fast=0[ref];[main][ref]psnr=eof_action=endall:stats_file='D\\:/Convert/FFMetrics/logs/psnr_logfile-6.txt'" -f null -
Input #0, matroska,webm, from 'F:\Convert\files\[DC] Make Heroine ga Oosugiru - 07_Telegram_HEVC(259).mkv':
  Metadata:
    COMPATIBLE_BRANDS: isomiso2avc1mp41
    MAJOR_BRAND     : isom
    MINOR_VERSION   : 512
    ENCODER         : Lavf61.7.100
  Duration: 00:24:06.79, start: -0.021000, bitrate: 1002 kb/s
  Stream #0:0: Video: hevc (Main 10), yuv420p10le(tv, bt709, progressive), 1920x1080 [SAR 1:1 DAR 16:9], 23.98 fps, 23.98 tbr, 1k tbn (default)
      Metadata:
        HANDLER_NAME    : VideoHandler
        VENDOR_ID       : [0][0][0][0]
        ENCODER         : Lavc61.19.100 libx265
        BPS             : 805298
        DURATION        : 00:24:06.569708333
        NUMBER_OF_FRAMES: 34683
        NUMBER_OF_BYTES : 145615023
        _STATISTICS_WRITING_APP: mkvpropedit v94.0 ('Initiate') 64-bit
        _STATISTICS_WRITING_DATE_UTC: 2026-03-30 10:03:29
        _STATISTICS_TAGS: BPS DURATION NUMBER_OF_FRAMES NUMBER_OF_BYTES
  Stream #0:1: Audio: aac (LC), 48000 Hz, stereo, fltp (default)
      Metadata:
        HANDLER_NAME    : SoundHandler
        VENDOR_ID       : [0][0][0][0]
        ENCODER         : Lavc61.19.100 aac
        BPS             : 193194
        DURATION        : 00:24:06.784000000
        NUMBER_OF_FRAMES: 67819
        NUMBER_OF_BYTES : 34938755
        _STATISTICS_WRITING_APP: mkvpropedit v94.0 ('Initiate') 64-bit
        _STATISTICS_WRITING_DATE_UTC: 2026-03-30 10:03:29
        _STATISTICS_TAGS: BPS DURATION NUMBER_OF_FRAMES NUMBER_OF_BYTES
Input #1, mov,mp4,m4a,3gp,3g2,mj2, from 'F:\Convert\files\[DC] Make Heroine ga Oosugiru - 07_Telegram.mp4':
  Metadata:
    major_brand     : isom
    minor_version   : 512
    compatible_brands: isomiso2avc1mp41
    encoder         : Lavf60.16.100
  Duration: 00:24:06.74, start: 0.000000, bitrate: 3764 kb/s
  Stream #1:0[0x1](und): Video: h264 (High) (avc1 / 0x31637661), yuv420p(tv, bt709, progressive), 1920x1080 [SAR 1:1 DAR 16:9], 3616 kb/s, 23.98 fps, 23.98 tbr, 24k tbn (default)
      Metadata:
        handler_name    : VideoHandler
        vendor_id       : [0][0][0][0]
        encoder         : Lavc60.31.102 h264_qsv
  Stream #1:1[0x2](und): Audio: aac (HE-AACv2) (mp4a / 0x6134706D), 48000 Hz, stereo, fltp, 144 kb/s (default)
      Metadata:
        handler_name    : SoundHandler
        vendor_id       : [0][0][0][0]
Stream mapping:
  Stream #0:0 (hevc) -> settb:default
  Stream #1:0 (h264) -> settb:default
  psnr:default -> Stream #0:0 (wrapped_avframe)
  Stream #0:1 -> #0:1 (aac (native) -> pcm_s16le (native))
Output #0, null, to 'pipe:':
  Metadata:
    COMPATIBLE_BRANDS: isomiso2avc1mp41
    MAJOR_BRAND     : isom
    MINOR_VERSION   : 512
    encoder         : Lavf61.7.100
  Stream #0:0: Video: wrapped_avframe, yuv420p10le(tv, bt709, progressive), 1920x1080 [SAR 1:1 DAR 16:9], q=2-31, 200 kb/s, 23.98 fps, 23.98 tbn
      Metadata:
        encoder         : Lavc61.19.100 wrapped_avframe
  Stream #0:1: Audio: pcm_s16le, 48000 Hz, stereo, s16, 1536 kb/s (default)
      Metadata:
        HANDLER_NAME    : SoundHandler
        VENDOR_ID       : [0][0][0][0]
        _STATISTICS_TAGS: BPS DURATION NUMBER_OF_FRAMES NUMBER_OF_BYTES
        BPS             : 193194
        DURATION        : 00:24:06.784000000
        NUMBER_OF_FRAMES: 67819
        NUMBER_OF_BYTES : 34938755
        _STATISTICS_WRITING_APP: mkvpropedit v94.0 ('Initiate') 64-bit
        _STATISTICS_WRITING_DATE_UTC: 2026-03-30 10:03:29
        encoder         : Lavc61.19.100 pcm_s16le
frame=  139 fps=0.0 q=-0.0 size=N/A time=00:00:05.79 bitrate=N/A speed=11.1x    frame=  340 fps=324 q=-0.0 size=N/A time=00:00:14.18 bitrate=N/A speed=13.5x    frame=  536 fps=343 q=-0.0 size=N/A time=00:00:22.35 bitrate=N/A speed=14.3x    frame=  727 fps=351 q=-0.0 size=N/A time=00:00:30.32 bitrate=N/A speed=14.6x    frame=  910 fps=351 q=-0.0 size=N/A time=00:00:37.95 bitrate=N/A speed=14.6x    frame= 1048 fps=337 q=-0.0 size=N/A time=00:00:43.71 bitrate=N/A speed=14.1x    frame= 1203 fps=332 q=-0.0 size=N/A time=00:00:50.17 bitrate=N/A speed=13.9x    frame= 1368 fps=331 q=-0.0 size=N/A time=00:00:57.05 bitrate=N/A speed=13.8x    frame= 1521 fps=327 q=-0.0 size=N/A time=00:01:03.43 bitrate=N/A speed=13.6x    frame= 1662 fps=322 q=-0.0 size=N/A time=00:01:09.31 bitrate=N/A speed=13.4x    frame= 1823 fps=320 q=-0.0 size=N/A time=00:01:16.03 bitrate=N/A speed=13.4x    frame= 1984 fps=320 q=-0.0 size=N/A time=00:01:22.74 bitrate=N/A speed=13.3x    frame= 2095 fps=312 q=-0.0 size=N/A time=00:01:27.37 bitrate=N/A speed=  13x    frame= 2246 fps=310 q=-0.0 size=N/A time=00:01:33.67 bitrate=N/A speed=12.9x    frame= 2382 fps=307 q=-0.0 size=N/A time=00:01:39.34 bitrate=N/A speed=12.8x    frame= 2508 fps=304 q=-0.0 size=N/A time=00:01:44.60 bitrate=N/A speed=12.7x    frame= 2664 fps=304 q=-0.0 size=N/A time=00:01:51.11 bitrate=N/A speed=12.7x    frame= 2840 fps=305 q=-0.0 size=N/A time=00:01:58.45 bitrate=N/A speed=12.7x    frame= 3009 fps=307 q=-0.0 size=N/A time=00:02:05.50 bitrate=N/A speed=12.8x    frame= 3205 fps=311 q=-0.0 size=N/A time=00:02:13.67 bitrate=N/A speed=  13x    frame= 3404 fps=314 q=-0.0 size=N/A time=00:02:21.97 bitrate=N/A speed=13.1x    frame= 3600 fps=317 q=-0.0 size=N/A time=00:02:30.15 bitrate=N/A speed=13.2x    frame= 3792 fps=320 q=-0.0 size=N/A time=00:02:38.15 bitrate=N/A speed=13.3x    frame= 3987 fps=322 q=-0.0 size=N/A time=00:02:46.29 bitrate=N/A speed=13.4x    frame= 4183 fps=324 q=-0.0 size=N/A time=00:02:54.46 bitrate=N/A speed=13.5x    frame= 4380 fps=326 q=-0.0 size=N/A time=00:03:02.68 bitrate=N/A speed=13.6x    frame= 4579 fps=328 q=-0.0 size=N/A time=00:03:10.98 bitrate=N/A speed=13.7x    frame= 4764 fps=330 q=-0.0 size=N/A time=00:03:18.69 bitrate=N/A speed=13.8x    frame= 4957 fps=331 q=-0.0 size=N/A time=00:03:26.74 bitrate=N/A speed=13.8x    frame= 5148 fps=333 q=-0.0 size=N/A time=00:03:34.71 bitrate=N/A speed=13.9x    frame= 5346 fps=334 q=-0.0 size=N/A time=00:03:42.97 bitrate=N/A speed=13.9x    frame= 5539 fps=336 q=-0.0 size=N/A time=00:03:51.02 bitrate=N/A speed=  14x    frame= 5732 fps=336 q=-0.0 size=N/A time=00:03:59.07 bitrate=N/A speed=  14x    frame= 5923 fps=338 q=-0.0 size=N/A time=00:04:07.03 bitrate=N/A speed=14.1x    frame= 6118 fps=339 q=-0.0 size=N/A time=00:04:15.17 bitrate=N/A speed=14.1x    frame= 6308 fps=340 q=-0.0 size=N/A time=00:04:23.09 bitrate=N/A speed=14.2x    frame= 6510 fps=341 q=-0.0 size=N/A time=00:04:31.52 bitrate=N/A speed=14.2x    frame= 6712 fps=342 q=-0.0 size=N/A time=00:04:39.94 bitrate=N/A speed=14.3x    frame= 6901 fps=343 q=-0.0 size=N/A time=00:04:47.82 bitrate=N/A speed=14.3x    frame= 7080 fps=343 q=-0.0 size=N/A time=00:04:55.29 bitrate=N/A speed=14.3x    frame= 7278 fps=344 q=-0.0 size=N/A time=00:05:03.55 bitrate=N/A speed=14.3x    frame= 7470 fps=344 q=-0.0 size=N/A time=00:05:11.56 bitrate=N/A speed=14.4x    frame= 7642 fps=344 q=-0.0 size=N/A time=00:05:18.73 bitrate=N/A speed=14.4x    frame= 7834 fps=345 q=-0.0 size=N/A time=00:05:26.74 bitrate=N/A speed=14.4x    frame= 8022 fps=345 q=-0.0 size=N/A time=00:05:34.58 bitrate=N/A speed=14.4x    frame= 8214 fps=346 q=-0.0 size=N/A time=00:05:42.59 bitrate=N/A speed=14.4x    frame= 8404 fps=346 q=-0.0 size=N/A time=00:05:50.51 bitrate=N/A speed=14.4x    frame= 8596 fps=347 q=-0.0 size=N/A time=00:05:58.52 bitrate=N/A speed=14.5x    frame= 8790 fps=347 q=-0.0 size=N/A time=00:06:06.61 bitrate=N/A speed=14.5x    frame= 8977 fps=348 q=-0.0 size=N/A time=00:06:14.41 bitrate=N/A speed=14.5x    frame= 9166 fps=348 q=-0.0 size=N/A time=00:06:22.29 bitrate=N/A speed=14.5x    frame= 9367 fps=349 q=-0.0 size=N/A time=00:06:30.68 bitrate=N/A speed=14.6x    frame= 9558 fps=349 q=-0.0 size=N/A time=00:06:38.64 bitrate=N/A speed=14.6x    frame= 9745 fps=349 q=-0.0 size=N/A time=00:06:46.44 bitrate=N/A speed=14.6x    frame= 9936 fps=350 q=-0.0 size=N/A time=00:06:54.41 bitrate=N/A speed=14.6x    frame=10130 fps=350 q=-0.0 size=N/A time=00:07:02.50 bitrate=N/A speed=14.6x    frame=10315 fps=350 q=-0.0 size=N/A time=00:07:10.22 bitrate=N/A speed=14.6x    frame=10499 fps=351 q=-0.0 size=N/A time=00:07:17.89 bitrate=N/A speed=14.6x    frame=10693 fps=351 q=-0.0 size=N/A time=00:07:25.98 bitrate=N/A speed=14.6x    frame=10876 fps=351 q=-0.0 size=N/A time=00:07:33.61 bitrate=N/A speed=14.6x    frame=11067 fps=351 q=-0.0 size=N/A time=00:07:41.58 bitrate=N/A speed=14.7x    frame=11251 fps=351 q=-0.0 size=N/A time=00:07:49.26 bitrate=N/A speed=14.7x    frame=11443 fps=352 q=-0.0 size=N/A time=00:07:57.26 bitrate=N/A speed=14.7x    frame=11635 fps=352 q=-0.0 size=N/A time=00:08:05.27 bitrate=N/A speed=14.7x    frame=11832 fps=353 q=-0.0 size=N/A time=00:08:13.49 bitrate=N/A speed=14.7x    frame=12026 fps=353 q=-0.0 size=N/A time=00:08:21.58 bitrate=N/A speed=14.7x    frame=12221 fps=353 q=-0.0 size=N/A time=00:08:29.71 bitrate=N/A speed=14.7x    frame=12405 fps=353 q=-0.0 size=N/A time=00:08:37.39 bitrate=N/A speed=14.7x    frame=12595 fps=354 q=-0.0 size=N/A time=00:08:45.31 bitrate=N/A speed=14.7x    frame=12792 fps=354 q=-0.0 size=N/A time=00:08:53.53 bitrate=N/A speed=14.8x    frame=12988 fps=354 q=-0.0 size=N/A time=00:09:01.70 bitrate=N/A speed=14.8x    frame=13177 fps=355 q=-0.0 size=N/A time=00:09:09.59 bitrate=N/A speed=14.8x    frame=13364 fps=355 q=-0.0 size=N/A time=00:09:17.39 bitrate=N/A speed=14.8x    frame=13556 fps=355 q=-0.0 size=N/A time=00:09:25.39 bitrate=N/A speed=14.8x    frame=13752 fps=355 q=-0.0 size=N/A time=00:09:33.57 bitrate=N/A speed=14.8x    frame=13941 fps=355 q=-0.0 size=N/A time=00:09:41.45 bitrate=N/A speed=14.8x    frame=14116 fps=355 q=-0.0 size=N/A time=00:09:48.75 bitrate=N/A speed=14.8x    frame=14304 fps=355 q=-0.0 size=N/A time=00:09:56.59 bitrate=N/A speed=14.8x    frame=14492 fps=355 q=-0.0 size=N/A time=00:10:04.43 bitrate=N/A speed=14.8x    frame=14682 fps=355 q=-0.0 size=N/A time=00:10:12.36 bitrate=N/A speed=14.8x    frame=14872 fps=356 q=-0.0 size=N/A time=00:10:20.28 bitrate=N/A speed=14.8x    frame=15058 fps=356 q=-0.0 size=N/A time=00:10:28.04 bitrate=N/A speed=14.8x    frame=15223 fps=355 q=-0.0 size=N/A time=00:10:34.92 bitrate=N/A speed=14.8x    frame=15403 fps=355 q=-0.0 size=N/A time=00:10:42.43 bitrate=N/A speed=14.8x    frame=15597 fps=355 q=-0.0 size=N/A time=00:10:50.52 bitrate=N/A speed=14.8x    frame=15787 fps=355 q=-0.0 size=N/A time=00:10:58.44 bitrate=N/A speed=14.8x    frame=15985 fps=356 q=-0.0 size=N/A time=00:11:06.70 bitrate=N/A speed=14.8x    frame=16178 fps=356 q=-0.0 size=N/A time=00:11:14.75 bitrate=N/A speed=14.8x    frame=16373 fps=356 q=-0.0 size=N/A time=00:11:22.89 bitrate=N/A speed=14.9x    frame=16559 fps=356 q=-0.0 size=N/A time=00:11:30.64 bitrate=N/A speed=14.9x    frame=16747 fps=356 q=-0.0 size=N/A time=00:11:38.48 bitrate=N/A speed=14.9x    frame=16939 fps=357 q=-0.0 size=N/A time=00:11:46.49 bitrate=N/A speed=14.9x    frame=17141 fps=357 q=-0.0 size=N/A time=00:11:54.92 bitrate=N/A speed=14.9x    frame=17341 fps=357 q=-0.0 size=N/A time=00:12:03.26 bitrate=N/A speed=14.9x    frame=17531 fps=357 q=-0.0 size=N/A time=00:12:11.18 bitrate=N/A speed=14.9x    frame=17714 fps=357 q=-0.0 size=N/A time=00:12:18.82 bitrate=N/A speed=14.9x    frame=17904 fps=357 q=-0.0 size=N/A time=00:12:26.74 bitrate=N/A speed=14.9x    frame=18095 fps=358 q=-0.0 size=N/A time=00:12:34.71 bitrate=N/A speed=14.9x    frame=18278 fps=358 q=-0.0 size=N/A time=00:12:42.34 bitrate=N/A speed=14.9x    frame=18466 fps=358 q=-0.0 size=N/A time=00:12:50.18 bitrate=N/A speed=14.9x    frame=18660 fps=358 q=-0.0 size=N/A time=00:12:58.27 bitrate=N/A speed=14.9x    frame=18854 fps=358 q=-0.0 size=N/A time=00:13:06.36 bitrate=N/A speed=14.9x    frame=19045 fps=358 q=-0.0 size=N/A time=00:13:14.33 bitrate=N/A speed=14.9x    frame=19242 fps=358 q=-0.0 size=N/A time=00:13:22.55 bitrate=N/A speed=14.9x    frame=19443 fps=359 q=-0.0 size=N/A time=00:13:30.93 bitrate=N/A speed=  15x    frame=19631 fps=359 q=-0.0 size=N/A time=00:13:38.77 bitrate=N/A speed=  15x    frame=19830 fps=359 q=-0.0 size=N/A time=00:13:47.07 bitrate=N/A speed=  15x    frame=20024 fps=359 q=-0.0 size=N/A time=00:13:55.16 bitrate=N/A speed=  15x    frame=20218 fps=359 q=-0.0 size=N/A time=00:14:03.25 bitrate=N/A speed=  15x    frame=20404 fps=359 q=-0.0 size=N/A time=00:14:11.01 bitrate=N/A speed=  15x    frame=20582 fps=359 q=-0.0 size=N/A time=00:14:18.44 bitrate=N/A speed=  15x    frame=20768 fps=359 q=-0.0 size=N/A time=00:14:26.19 bitrate=N/A speed=  15x    frame=20965 fps=359 q=-0.0 size=N/A time=00:14:34.41 bitrate=N/A speed=  15x    frame=21161 fps=359 q=-0.0 size=N/A time=00:14:42.59 bitrate=N/A speed=  15x    frame=21348 fps=359 q=-0.0 size=N/A time=00:14:50.38 bitrate=N/A speed=  15x    frame=21537 fps=360 q=-0.0 size=N/A time=00:14:58.27 bitrate=N/A speed=  15x    frame=21732 fps=360 q=-0.0 size=N/A time=00:15:06.40 bitrate=N/A speed=  15x    frame=21921 fps=360 q=-0.0 size=N/A time=00:15:14.28 bitrate=N/A speed=  15x    frame=22108 fps=360 q=-0.0 size=N/A time=00:15:22.08 bitrate=N/A speed=  15x    frame=22311 fps=360 q=-0.0 size=N/A time=00:15:30.55 bitrate=N/A speed=  15x    frame=22506 fps=360 q=-0.0 size=N/A time=00:15:38.68 bitrate=N/A speed=  15x    frame=22698 fps=360 q=-0.0 size=N/A time=00:15:46.69 bitrate=N/A speed=  15x    frame=22883 fps=360 q=-0.0 size=N/A time=00:15:54.41 bitrate=N/A speed=  15x    frame=23065 fps=360 q=-0.0 size=N/A time=00:16:02.00 bitrate=N/A speed=  15x    frame=23254 fps=360 q=-0.0 size=N/A time=00:16:09.88 bitrate=N/A speed=  15x    frame=23447 fps=360 q=-0.0 size=N/A time=00:16:17.93 bitrate=N/A speed=  15x    frame=23643 fps=361 q=-0.0 size=N/A time=00:16:26.11 bitrate=N/A speed=  15x    frame=23831 fps=361 q=-0.0 size=N/A time=00:16:33.95 bitrate=N/A speed=  15x    frame=24026 fps=361 q=-0.0 size=N/A time=00:16:42.08 bitrate=N/A speed=  15x    frame=24212 fps=361 q=-0.0 size=N/A time=00:16:49.84 bitrate=N/A speed=  15x    frame=24399 fps=361 q=-0.0 size=N/A time=00:16:57.64 bitrate=N/A speed=  15x    frame=24590 fps=361 q=-0.0 size=N/A time=00:17:05.60 bitrate=N/A speed=  15x    frame=24785 fps=361 q=-0.0 size=N/A time=00:17:13.74 bitrate=N/A speed=15.1x    frame=24970 fps=361 q=-0.0 size=N/A time=00:17:21.45 bitrate=N/A speed=15.1x    frame=25151 fps=361 q=-0.0 size=N/A time=00:17:29.00 bitrate=N/A speed=15.1x    frame=25342 fps=361 q=-0.0 size=N/A time=00:17:36.97 bitrate=N/A speed=15.1x    frame=25534 fps=361 q=-0.0 size=N/A time=00:17:44.98 bitrate=N/A speed=15.1x    frame=25731 fps=361 q=-0.0 size=N/A time=00:17:53.19 bitrate=N/A speed=15.1x    frame=25926 fps=361 q=-0.0 size=N/A time=00:18:01.33 bitrate=N/A speed=15.1x    frame=26117 fps=361 q=-0.0 size=N/A time=00:18:09.29 bitrate=N/A speed=15.1x    frame=26313 fps=361 q=-0.0 size=N/A time=00:18:17.47 bitrate=N/A speed=15.1x    frame=26514 fps=362 q=-0.0 size=N/A time=00:18:25.85 bitrate=N/A speed=15.1x    frame=26709 fps=362 q=-0.0 size=N/A time=00:18:33.98 bitrate=N/A speed=15.1x    frame=26900 fps=362 q=-0.0 size=N/A time=00:18:41.95 bitrate=N/A speed=15.1x    frame=27071 fps=362 q=-0.0 size=N/A time=00:18:49.08 bitrate=N/A speed=15.1x    frame=27256 fps=362 q=-0.0 size=N/A time=00:18:56.80 bitrate=N/A speed=15.1x    frame=27437 fps=362 q=-0.0 size=N/A time=00:19:04.35 bitrate=N/A speed=15.1x    frame=27628 fps=362 q=-0.0 size=N/A time=00:19:12.31 bitrate=N/A speed=15.1x    frame=27819 fps=362 q=-0.0 size=N/A time=00:19:20.28 bitrate=N/A speed=15.1x    frame=27998 fps=362 q=-0.0 size=N/A time=00:19:27.74 bitrate=N/A speed=15.1x    frame=28197 fps=362 q=-0.0 size=N/A time=00:19:36.04 bitrate=N/A speed=15.1x    frame=28388 fps=362 q=-0.0 size=N/A time=00:19:44.01 bitrate=N/A speed=15.1x    frame=28579 fps=362 q=-0.0 size=N/A time=00:19:51.98 bitrate=N/A speed=15.1x    frame=28759 fps=362 q=-0.0 size=N/A time=00:19:59.48 bitrate=N/A speed=15.1x    frame=28934 fps=362 q=-0.0 size=N/A time=00:20:06.78 bitrate=N/A speed=15.1x    frame=29107 fps=361 q=-0.0 size=N/A time=00:20:14.00 bitrate=N/A speed=15.1x    frame=29277 fps=361 q=-0.0 size=N/A time=00:20:21.09 bitrate=N/A speed=15.1x    frame=29455 fps=361 q=-0.0 size=N/A time=00:20:28.51 bitrate=N/A speed=15.1x    frame=29633 fps=361 q=-0.0 size=N/A time=00:20:35.94 bitrate=N/A speed=15.1x    frame=29805 fps=361 q=-0.0 size=N/A time=00:20:43.11 bitrate=N/A speed=15.1x    frame=29962 fps=361 q=-0.0 size=N/A time=00:20:49.66 bitrate=N/A speed=  15x    frame=30128 fps=360 q=-0.0 size=N/A time=00:20:56.58 bitrate=N/A speed=  15x    frame=30314 fps=360 q=-0.0 size=N/A time=00:21:04.34 bitrate=N/A speed=  15x    frame=30496 fps=360 q=-0.0 size=N/A time=00:21:11.93 bitrate=N/A speed=  15x    frame=30682 fps=360 q=-0.0 size=N/A time=00:21:19.69 bitrate=N/A speed=  15x    frame=30871 fps=360 q=-0.0 size=N/A time=00:21:27.57 bitrate=N/A speed=  15x    frame=31062 fps=360 q=-0.0 size=N/A time=00:21:35.54 bitrate=N/A speed=  15x    frame=31251 fps=360 q=-0.0 size=N/A time=00:21:43.42 bitrate=N/A speed=  15x    frame=31437 fps=360 q=-0.0 size=N/A time=00:21:51.18 bitrate=N/A speed=  15x    frame=31612 fps=360 q=-0.0 size=N/A time=00:21:58.48 bitrate=N/A speed=  15x    frame=31800 fps=360 q=-0.0 size=N/A time=00:22:06.32 bitrate=N/A speed=  15x    frame=31963 fps=360 q=-0.0 size=N/A time=00:22:13.12 bitrate=N/A speed=  15x    frame=32148 fps=360 q=-0.0 size=N/A time=00:22:20.83 bitrate=N/A speed=  15x    frame=32341 fps=360 q=-0.0 size=N/A time=00:22:28.88 bitrate=N/A speed=  15x    frame=32542 fps=360 q=-0.0 size=N/A time=00:22:37.27 bitrate=N/A speed=  15x    frame=32698 fps=360 q=-0.0 size=N/A time=00:22:43.77 bitrate=N/A speed=  15x    frame=32846 fps=359 q=-0.0 size=N/A time=00:22:49.95 bitrate=N/A speed=  15x    frame=33034 fps=359 q=-0.0 size=N/A time=00:22:57.79 bitrate=N/A speed=  15x    frame=33207 fps=359 q=-0.0 size=N/A time=00:23:05.00 bitrate=N/A speed=  15x    frame=33383 fps=359 q=-0.0 size=N/A time=00:23:12.34 bitrate=N/A speed=  15x    frame=33538 fps=359 q=-0.0 size=N/A time=00:23:18.81 bitrate=N/A speed=  15x    frame=33681 fps=358 q=-0.0 size=N/A time=00:23:24.77 bitrate=N/A speed=  15x    frame=33809 fps=358 q=-0.0 size=N/A time=00:23:30.11 bitrate=N/A speed=14.9x    frame=33943 fps=357 q=-0.0 size=N/A time=00:23:35.70 bitrate=N/A speed=14.9x    frame=34098 fps=357 q=-0.0 size=N/A time=00:23:42.17 bitrate=N/A speed=14.9x    frame=34253 fps=357 q=-0.0 size=N/A time=00:23:48.63 bitrate=N/A speed=14.9x    frame=34381 fps=356 q=-0.0 size=N/A time=00:23:53.97 bitrate=N/A speed=14.9x    frame=34534 fps=356 q=-0.0 size=N/A time=00:24:00.35 bitrate=N/A speed=14.8x    [Parsed_psnr_16 @ 000001cacb4dc040] PSNR y:49.004799 u:50.334535 v:50.385568 average:49.411282 min:38.021631 max:inf
[out#0/null @ 000001cabe7bdec0] video:14903KiB audio:271276KiB subtitle:0KiB other streams:0KiB global headers:0KiB muxing overhead: unknown
frame=34683 fps=356 q=-0.0 Lsize=N/A time=00:24:06.57 bitrate=N/A speed=14.8x    
